<?xml version="1.0" encoding="utf-8"?>
<!-- Generator: Adobe Illustrator 22.0.1, SVG Export Plug-In . SVG Version: 6.00 Build 0)  -->
<svg version="1.1" id="Layer_1" xmlns="http://www.w3.org/2000/svg" xmlns:xlink="http://www.w3.org/1999/xlink" x="0px" y="0px"
	 viewBox="0 0 230.5 42.3" style="enable-background:new 0 0 230.5 42.3;" xml:space="preserve">
<style type="text/css">
	.st0{fill:none;}
	.st1{fill:#707071;}
	.st2{fill:#5298D2;}
	.st3{display:none;opacity:0.4;fill:#707071;}
</style>
<g>
	<rect x="-19.4" y="-37.6" class="st0" width="250.1" height="149.9"/>
	<path class="st1" d="M49.5,41.6h-5.2L42.8,37h-7.5l-1.5,4.7h-5.1l7.6-21H42L49.5,41.6z M41.7,33.3l-2.3-7.1
		c-0.2-0.5-0.3-1.2-0.4-1.9H39c0,0.6-0.2,1.2-0.4,1.8l-2.3,7.1H41.7z"/>
	<path class="st1" d="M63,41.1c-1,0.6-2.6,0.9-4.5,0.9c-2.3,0-4.2-0.7-5.6-2.1s-2.1-3.2-2.1-5.4c0-2.5,0.8-4.6,2.3-6
		s3.6-2.2,6.1-2.2c1.8,0,3,0.2,3.8,0.7v3.9c-1-0.7-2-1.1-3.2-1.1c-1.3,0-2.4,0.4-3.2,1.2s-1.2,1.8-1.2,3.2c0,1.3,0.4,2.4,1.1,3.1
		s1.8,1.1,3.1,1.1c1.2,0,2.3-0.4,3.4-1.1V41.1z"/>
	<path class="st1" d="M78.5,41.6h-4.4v-2.2h-0.1c-1,1.7-2.5,2.5-4.5,2.5c-1.5,0-2.6-0.4-3.4-1.2s-1.3-1.9-1.3-3.3
		c0-2.9,1.7-4.6,5.2-5l4.1-0.5c0-1.6-0.9-2.5-2.7-2.5c-1.8,0-3.5,0.5-5.1,1.6v-3.5c0.6-0.3,1.5-0.6,2.6-0.9s2.1-0.4,3.1-0.4
		c4.3,0,6.4,2.1,6.4,6.4V41.6z M74.2,35.5v-1l-2.7,0.4c-1.5,0.2-2.3,0.9-2.3,2c0,0.5,0.2,1,0.5,1.3c0.4,0.3,0.9,0.5,1.5,0.5
		c0.9,0,1.6-0.3,2.1-0.9C73.9,37.2,74.2,36.5,74.2,35.5z"/>
	<path class="st1" d="M96.8,41.6h-4.6v-2.1h-0.1c-1.1,1.6-2.6,2.4-4.6,2.4c-1.9,0-3.4-0.7-4.5-2c-1.1-1.3-1.7-3.2-1.7-5.5
		c0-2.5,0.6-4.5,1.9-6s2.9-2.2,5-2.2c1.9,0,3.3,0.7,4,2.1h0.1v-8.9h4.6V41.6z M92.3,34.3v-1.1c0-1-0.3-1.8-0.8-2.4s-1.3-1-2.2-1
		c-1,0-1.8,0.4-2.4,1.2S86,32.9,86,34.3c0,1.3,0.3,2.3,0.8,3s1.3,1.1,2.3,1.1c0.9,0,1.7-0.4,2.3-1.1S92.3,35.6,92.3,34.3z"/>
	<path class="st1" d="M114.2,35.5h-9.8c0.2,2.2,1.5,3.3,4.1,3.3c1.7,0,3.1-0.4,4.4-1.2v3.3c-1.4,0.7-3.2,1.1-5.4,1.1
		c-2.4,0-4.3-0.7-5.6-2c-1.3-1.3-2-3.2-2-5.6c0-2.5,0.7-4.5,2.2-5.9s3.2-2.2,5.3-2.2c2.2,0,3.9,0.6,5.1,1.9c1.2,1.3,1.8,3.1,1.8,5.3
		V35.5z M109.9,32.6c0-2.1-0.9-3.2-2.6-3.2c-0.7,0-1.4,0.3-1.9,0.9s-0.9,1.4-1,2.3H109.9z"/>
	<path class="st1" d="M140.8,41.6h-4.6v-8.6c0-2.2-0.8-3.3-2.4-3.3c-0.8,0-1.4,0.3-1.9,1s-0.7,1.5-0.7,2.4v8.4h-4.6V33
		c0-2.1-0.8-3.2-2.4-3.2c-0.8,0-1.4,0.3-1.9,0.9s-0.7,1.5-0.7,2.5v8.3H117v-15h4.6V29h0.1c0.5-0.8,1.1-1.5,2-2
		c0.9-0.5,1.8-0.8,2.8-0.8c2.1,0,3.6,0.9,4.4,2.8c1.1-1.9,2.8-2.8,5-2.8c3.3,0,4.9,2,4.9,6V41.6z"/>
	<path class="st1" d="M146.7,24.3c-0.8,0-1.4-0.2-1.9-0.7s-0.7-1-0.7-1.7c0-0.7,0.2-1.3,0.7-1.7s1.1-0.7,1.9-0.7
		c0.8,0,1.4,0.2,1.9,0.7s0.7,1,0.7,1.7c0,0.7-0.2,1.3-0.7,1.7S147.5,24.3,146.7,24.3z M148.9,36.5c0,0.6,0.2,1.1,0.5,1.4
		c0.3,0.3,0.7,0.5,1.2,0.5c0.3,0,0.5,0,0.8-0.1s0.5-0.1,0.8-0.1v3.3c-0.6,0.1-1.1,0.3-1.8,0.4c-0.6,0.1-1.3,0.1-1.9,0.1
		c-0.6,0-1.2-0.1-1.7-0.3s-0.9-0.5-1.3-0.9s-0.6-0.9-0.8-1.4s-0.3-1.2-0.3-1.8V26.6h4.6V36.5z"/>
	<path class="st1" d="M165.4,41.1c-1,0.6-2.6,0.9-4.5,0.9c-2.3,0-4.2-0.7-5.6-2.1s-2.1-3.2-2.1-5.4c0-2.5,0.8-4.6,2.3-6
		c1.5-1.5,3.6-2.2,6.1-2.2c1.8,0,3,0.2,3.8,0.7v3.9c-1-0.7-2-1.1-3.2-1.1c-1.3,0-2.4,0.4-3.2,1.2c-0.8,0.8-1.2,1.8-1.2,3.2
		c0,1.3,0.4,2.4,1.1,3.1s1.8,1.1,3.1,1.1c1.2,0,2.3-0.4,3.4-1.1V41.1z"/>
	<path class="st2" d="M196.4,20.6l-5.6,21h-5.2l-3.5-13.5c-0.2-0.7-0.3-1.5-0.3-2.4h-0.1c-0.1,1-0.2,1.7-0.4,2.4l-3.6,13.5h-5.5
		l-5.5-21h5.2l3,14c0.1,0.6,0.2,1.4,0.3,2.4h0.1c0-0.8,0.2-1.6,0.4-2.5l3.8-13.9h5.1l3.4,14.1c0.1,0.5,0.2,1.3,0.3,2.3h0.1
		c0-0.8,0.1-1.6,0.3-2.3l2.9-14H196.4z"/>
	<path class="st2" d="M211.3,35.5h-9.8c0.2,2.2,1.5,3.3,4.1,3.3c1.7,0,3.1-0.4,4.4-1.2v3.3c-1.4,0.7-3.2,1.1-5.4,1.1
		c-2.4,0-4.3-0.7-5.6-2c-1.3-1.3-2-3.2-2-5.6c0-2.5,0.7-4.5,2.2-5.9s3.2-2.2,5.3-2.2c2.2,0,3.9,0.6,5.1,1.9c1.2,1.3,1.8,3.1,1.8,5.3
		V35.5z M207,32.6c0-2.1-0.9-3.2-2.6-3.2c-0.7,0-1.4,0.3-1.9,0.9c-0.5,0.6-0.9,1.4-1,2.3H207z"/>
	<path class="st2" d="M218.7,39.9L218.7,39.9l-0.1,1.7h-4.6V19.4h4.6v9.5h0.1c1.1-1.7,2.8-2.6,4.9-2.6c1.9,0,3.4,0.7,4.5,2
		s1.6,3.1,1.6,5.4c0,2.5-0.6,4.5-1.8,6S225,42,222.9,42C221.1,42,219.7,41.3,218.7,39.9z M218.6,33.6v1.5c0,1,0.3,1.8,0.8,2.4
		s1.3,1,2.1,1c1.1,0,1.9-0.4,2.5-1.2c0.6-0.8,0.9-2,0.9-3.5c0-1.2-0.3-2.2-0.8-2.9s-1.3-1-2.3-1c-0.9,0-1.7,0.3-2.3,1
		C218.9,31.5,218.6,32.4,218.6,33.6z"/>
</g>
<g id="Circles">
	<circle class="st3" cx="34" cy="34" r="30"/>
	<circle id="_x31_" class="st2" cx="4.6" cy="37.9" r="4"/>
	<circle id="_x32_" class="st2" cx="6.1" cy="23.6" r="4"/>
	<circle id="_x33_" class="st2" cx="14.6" cy="10.7" r="4"/>
	<circle id="_x34_" class="st2" cx="28.4" cy="4.5" r="4"/>
	<circle id="_x35_" class="st2" cx="44.6" cy="6.9" r="4"/>
	<circle id="_x36_" class="st2" cx="56.6" cy="16.5" r="4"/>
</g>
<g>
</g>
<g>
</g>
<g>
</g>
<g>
</g>
<g>
</g>
<g>
</g>
</svg>
